<?xml version="1.0" encoding="utf-8"?>
<!-- Generator: Adobe Illustrator 21.0.2, SVG Export Plug-In . SVG Version: 6.00 Build 0)  -->
<svg version="1.1" id="图层_1" xmlns="http://www.w3.org/2000/svg" xmlns:xlink="http://www.w3.org/1999/xlink" x="0px" y="0px"
	 viewBox="0 0 100 100" style="enable-background:new 0 0 100 100;" xml:space="preserve">
<style type="text/css">
	.st0{fill:#FFFFFF;}
</style>
<g>
	<g>
		<path class="st0" d="M29.4,27c1.8,0.6,3.6,1.4,5.4,2.1c0.6,0.2,1,0.2,1.3,0.2c1.2,0.5,1.8,0.9,1.8,1.2c-0.3,0.2-1,0.2-2.2,0.2
			c-2.4,0.2-5.7,0.1-9.8-0.2c-1.8,0-3-0.2-3.6-0.7c-0.6-0.5-0.3-1,0.9-1.7C25.8,26.9,27.9,26.5,29.4,27z"/>
		<path class="st0" d="M31.7,35.7c0.7-0.3,1.4-0.3,2.1-0.2c0.5,0.3,0.5,0.7,0,1.2c-1.6,1.9-3.7,3.8-6.3,5.8c-2.3,1.4-4.7,1.5-7,0.4
			c-1.9-1.1-1.3-2.2,1.8-3.3c1.4-0.4,3.5-1.2,6.3-2.5C29.7,36.6,30.7,36.1,31.7,35.7z"/>
		<path class="st0" d="M37.4,19.3c0.8,1.5,1.6,2.6,2.2,3.4c0.1,0.5,0.1,0.8,0,0.9c-0.3,0.2-0.6,0.2-0.8,0c-0.6-0.2-1.5-0.4-2.5-0.6
			c-1-0.4-1.7-0.7-2.2-1c-0.8-0.2-1.2-0.5-1.2-1c0-0.6,0.5-1.2,1.3-1.8C35.3,18.3,36.4,18.3,37.4,19.3z"/>
		<g>
			<g>
				<g>
					<path class="st0" d="M55.1,14.9c0.7,0.1,1.9,0.8,2,1.7c0,1.6-0.7,3.3-0.8,4.9c-0.1,0.8,0.5,1.6,1.5,1.9c3.8,2.2,10,2.7,14.4,2
						c0.8,0,1,0.2,0.7,0.6c-1.2,2-3.2,3.4-5.5,3.1c-3.2-0.5-7.6-1.6-10.8-4.1c-1-0.6-1.7-0.6-2.4,0.2c-1.9,2.1-5.6,3.6-10,3.3
						c-2.8-0.2-3.9-1.5-3.9-2.2c0-0.8,0.7-1.2,2.6-1c6.2,0.6,13.3-0.7,11.3-8.9C53.9,15.3,54.3,14.7,55.1,14.9z"/>
				</g>
			</g>
			<path class="st0" d="M45.3,17.8c1.1-0.8,2-0.8,2.6-0.2c0.5,1.2,1.1,2.4,1.6,3.5c0,0.4,0,0.6-0.1,0.7c-0.1,0.2-0.3,0.2-0.6,0
				c-0.9-0.4-1.9-1.1-3.1-2C44.7,19.1,44.6,18.4,45.3,17.8z"/>
			<path class="st0" d="M63.5,17.8c0.5-0.8,1.3-0.8,2.3,0c0.7,1,0.6,1.7-0.2,2.3c-0.9,0.8-2,1.3-3.2,1.6c-0.5,0.1-0.7,0.1-0.8,0
				c-0.1-0.2,0-0.4,0.2-0.7c0.1-0.4,0.4-0.9,0.9-1.6C62.9,18.8,63.2,18.3,63.5,17.8z"/>
		</g>
		<g>
			<g>
				<path class="st0" d="M55.6,28.5c1.8,0.3,2.2,1.2,2,2.2c-0.2,1.4-0.9,2.7-0.9,4.5c0.1,0.7,0.2,1.1,0.9,1.4
					c6.4,4.5,13.7,5.7,22.1,3c0.8-0.1,1.2,0,1.6,0.4c0.7,1.2-1.4,2.7-1.7,3.1c-4.6,2.7-6.5,2.3-10.1,1.8c-3.1-0.5-7.5-2.1-10.8-4.6
					c-1.2-0.9-1.9-1.5-2.3-2c-0.8-0.7-1.3-0.7-1.5,0.1c-3.7,5.8-11.3,7.9-18.1,6.3c-2.8-0.8-4-2.4-3.9-4c0.1-1.4,1.5-1.3,4.2-0.4
					c5.8,1.9,17.4,0.9,17.6-6.5c0-0.8-0.2-1.9-0.8-3.2c-0.1-0.3-0.1-0.6-0.2-0.8C53.2,29,53.8,28.5,55.6,28.5z"/>
			</g>
			<path class="st0" d="M42.3,32.8c0.8-0.8,1.6-1.1,2.3-0.9c1,1,1.9,1.8,2.6,2.5c0.3,0.4,0.3,0.7,0.2,1c-0.1,0.2-0.4,0.2-0.9,0.1
				c-0.5,0-1.4-0.2-2.6-0.6c-0.4-0.1-0.7-0.2-0.9-0.3C42.1,34.3,41.9,33.8,42.3,32.8z"/>
			<path class="st0" d="M65.8,32.1c0.9-0.9,1.9-0.7,3,0.7c0.7,1.3,0.6,2.1-0.3,2.4c-0.9,0.3-2.1,0.5-3.5,0.5l-0.3-0.1
				c-0.8,0-1.4-0.1-1.7-0.3c-0.1-0.2,0.1-0.5,0.6-0.9c0-0.1,0.3-0.5,0.6-0.9C65,32.9,65.5,32.4,65.8,32.1z"/>
		</g>
	</g>
	<g>
		<g>
			<path class="st0" d="M48.4,59.2c1-1.1,2.1-1,3.2,0.3c0,0.1,0,0.2,0,0.3c0.7,0.9,1.5,1.5,2.2,1.7c8.2,3.9,16.7,7.5,26,5.5
				c0.6-0.1,1.1,0,1.3,0.2c0.2,0.2,0.1,0.5-0.3,0.9c-2.8,5-6.4,6.4-10.7,3.9c-5.5-3.2-12.7-6.4-18.9-10.3c-1.2-0.5-2.1-0.4-2.9,0.2
				c-7,4.6-14.7,10.2-23.5,10c-2.8,0.1-4.1-1.8-4.4-3.1c-0.3-1.1,0.2-1.4,2-1.1C31,67.4,42,66,48.4,59.2z"/>
		</g>
		<path class="st0" d="M59.5,49.8c1.5,0.3,2.2,1.1,1.9,2.4c-0.3,0.6-0.5,1.3-0.6,2c2.3,0.1,4.2,0.3,5.8,0.4c1,0.3,1.5,0.6,1.5,1.1
			c-0.3,0.9-0.9,1.2-1.9,0.9c-1.5-0.1-3.5-0.2-5.8-0.4c-0.3,1.4-0.6,2.7-1.2,4.1c-0.4,0.6-0.8,0.9-1.2,0.9c-0.4-0.1-0.5-0.6-0.4-1.3
			c-0.1,0-0.1-0.6,0.2-1.9c0.1-1.1,0.2-1.7,0.2-1.9c-3-0.1-11.2-0.1-16.5,0.2c0,0.7,0,1.9,0,3.4c-0.1,0.6-0.4,1-0.8,1.1
			c-0.5,0-0.8-0.3-1-0.9c-0.3-1.5-0.5-2.6-0.6-3.4c-2.8,0.3-4.7,0.5-5.8,0.7c-0.9,0.3-1.7,0.1-2.3-0.4c-0.5-0.5-0.5-1.1,0.2-1.7
			c0.6-0.5,1.5-0.7,2.5-0.7c0.5,0.1,1.2,0.2,1.9,0.2c0.8,0,1.9-0.1,3.3-0.2c-0.1-0.9-0.3-1.9-0.6-3c-0.1,0-0.2-0.1-0.2-0.2
			c-0.4-1,0-1.5,1.2-1.5c1.4,0,2.1,0.6,2.1,1.7c0,1.5,0,2.5,0,3c0.6,0,1.7,0,3.1,0c4.1-0.2,11.4-0.4,13.6-0.4c0-0.1,0-0.4,0-0.7
			c0.1-1,0.2-1.7,0.2-2.2C58.3,50.4,58.6,49.9,59.5,49.8z"/>
		<g>
			<path class="st0" d="M41.2,75c0.2-0.2,0.4-0.3,0.6-0.3c0.1,0.1,0.2,0.3,0.2,0.6c-0.5,1.8-1.8,3.5-3.7,5.1
				c-1.1,0.7-1.9,0.7-2.5-0.2c-0.3-0.4-0.2-1,0.5-1.8l1.8-1.1C39.4,76.3,40.4,75.5,41.2,75z"/>
			<path class="st0" d="M49.2,82.5V71.9c-1,0.1-2.2,0.2-3.5,0.2c-1.2,0.1-2.4,0.2-3.5,0.4c-1,0.2-1.7,0.2-2,0
				c-0.2-0.4-0.1-0.8,0.4-1.4c0.9-1.3,2.1-1.8,3.7-1.4c0.6,0.2,1.3,0.4,2,0.5c0.9,0.1,1.9,0.1,3,0c0-0.5,0-1.3,0-2.5
				c0-1.1,0.4-1.6,1.1-1.6c0.5,0.1,0.9,0.7,1.3,1.8c0,0.8,0,1.6,0,2.2c3.7-0.1,5.7-0.2,5.9-0.4c1.1,0,1.6,0.4,1.5,1.1
				c0,0.7-0.7,1-2,0.9c-0.6,0-1.5,0.1-2.6,0.2c-1.2,0-2.2,0-2.8,0c0,7,0.1,10.6,0.2,10.8c-0.1,1.6-0.6,2.3-1.5,2.3
				C49.5,84.9,49.1,84.1,49.2,82.5z"/>
			<path class="st0" d="M59.1,75.3c1.8,0.5,3.4,1.2,4.9,2.2c1,0.7,1.1,1.4,0.5,2.2c-1,1-1.8,1.1-2.5,0.2c-0.3-0.2-0.7-0.5-1.1-0.9
				c-1.1-1.2-1.9-2.2-2.4-2.8c-0.2-0.2-0.3-0.4-0.2-0.6C58.5,75.2,58.8,75.2,59.1,75.3z"/>
		</g>
	</g>
	<path class="st0" d="M51.1,8.1c22.9,0,41.5,18.6,41.5,41.5S74,91.1,51.1,91.1S9.6,72.5,9.6,49.6S28.2,8.1,51.1,8.1 M51.1,4.1
		C26,4.1,5.6,24.5,5.6,49.6S26,95,51.1,95s45.4-20.4,45.4-45.4S76.1,4.1,51.1,4.1L51.1,4.1z"/>
</g>
</svg>
