<?xml version="1.0" encoding="utf-8"?>
<!-- Generator: Adobe Illustrator 21.0.2, SVG Export Plug-In . SVG Version: 6.00 Build 0)  -->
<svg version="1.1" id="图层_1" xmlns="http://www.w3.org/2000/svg" xmlns:xlink="http://www.w3.org/1999/xlink" x="0px" y="0px"
	 viewBox="0 0 300 180" style="enable-background:new 0 0 300 180;" xml:space="preserve">
<style type="text/css">
	.st0{opacity:0.21;}
	.st1{fill:#FFFFFF;}
</style>
<g class="st0">
	<path class="st1" d="M166.1,166.3V67.1h-33v99.2H166.1L166.1,166.3z M149.5,53.3c11.6,0,18.6-7.6,18.6-17.1
		c-0.3-9.8-7.2-17.1-18.5-17.1S131,26.6,131,36.2c0,9.5,7.2,17.1,18.2,17.1H149.5L149.5,53.3z"/>
	<path class="st1" d="M184.3,166.3h33v-55.5c0-3,0.3-6,1.1-8c2.4-6,7.7-12.1,17-12.1c12,0,16.7,9.1,16.7,22.4v53.1H285v-57
		c0-30.4-16.3-44.7-38.1-44.7c-17.8,0-25.6,9.9-29.9,16.7h0.3V66.9h-33C184.7,76.3,184.3,166.3,184.3,166.3L184.3,166.3z"/>
</g>
</svg>
