<?xml version="1.0" encoding="utf-8"?>
<!-- Generator: Adobe Illustrator 21.0.2, SVG Export Plug-In . SVG Version: 6.00 Build 0)  -->
<svg version="1.1" id="图层_1" xmlns="http://www.w3.org/2000/svg" xmlns:xlink="http://www.w3.org/1999/xlink" x="0px" y="0px"
	 viewBox="0 0 1920 1100" style="enable-background:new 0 0 1920 1100;" xml:space="preserve">
<style type="text/css">
	.st0{fill:#666666;}
	.st1{fill:#CCBC9C;}
	.st2{fill:#808080;}
	.st3{fill:#F1F1F1;}
</style>
<g>
	<g>
		<circle class="st1" cx="607.4" cy="458.9" r="67.7"/>
		<g>
			<path class="st2" d="M596.7,581.4l0.7-0.2c0.2,0.5,0.3,0.9,0.4,1.4h6.2v0.7h-13.6v-0.7h6.6c0-0.2-0.1-0.4-0.2-0.6
				C596.8,581.7,596.7,581.5,596.7,581.4z M592,594.7h-0.7v-6.3h12v4.6c0,1-0.5,1.5-1.5,1.5c-0.5,0-1,0-1.8,0c0-0.3,0-0.5-0.1-0.7
				c0.5,0,1,0,1.6,0c0.8,0,1.1-0.2,1.1-0.8v-4H592V594.7z M592.8,584.5h8.9v2.7h-8.9V584.5z M593.5,585.2v1.4h7.4v-1.4H593.5z
				 M594.2,590.2h6.1v2.9h-6.1V590.2z M594.9,590.9v1.5h4.6v-1.5H594.9z"/>
			<path class="st2" d="M614.2,581.2h0.7v1.3h4.8v3H615v1.3h6.5v0.7h-13.7v-0.7h6.4v-1.3h-4.8v-3h4.8V581.2z M613.7,592.3
				c0.4-0.4,0.6-1.1,0.6-2.2h0.7c0,0.7-0.1,1.3-0.3,1.8c0.3,0.1,0.8,0.3,1.4,0.5c1.8,0.6,3.3,1.1,4.4,1.6l-0.5,0.7
				c-2-0.9-3.8-1.6-5.6-2.2c0,0-0.1,0.1-0.1,0.2c-0.1,0.1-0.1,0.1-0.2,0.2c-0.6,0.8-2.5,1.5-5.6,1.9c0-0.1-0.1-0.2-0.2-0.4
				c-0.1-0.2-0.1-0.3-0.2-0.4C611.2,593.7,613,593.1,613.7,592.3z M609.8,588.8h9.6v3.5h-0.7v-2.8h-8.1v2.8h-0.7V588.8z
				 M610.2,583.2v1.6h4v-1.6H610.2z M619,583.2h-4v1.6h4V583.2z"/>
		</g>
		<g>
			<path class="st0" d="M569.2,635.3h-2.2l-0.8,3.5h2.2l-0.1,0.9h-2.2l-0.9,3.8h-0.9l0.9-3.8h-2.6l-0.9,3.8h-0.9l1-3.8h-2.2l0.1-0.9
				h2.2l0.9-3.5h-2.2l0.2-0.9h2.2l0.9-3.8h0.9l-0.9,3.8h2.6l0.9-3.8h0.9l-0.9,3.8h2.2L569.2,635.3z M565.3,638.8l0.9-3.5h-2.6
				l-0.8,3.5H565.3z"/>
			<path class="st0" d="M581,639l1.1,0.3c-0.7,2.8-2.6,4.2-5.7,4.3c-3.8-0.3-5.8-2.5-5.9-6.6c0.2-4.4,2.3-6.7,6.1-6.9
				c2.6,0.1,4.3,1.4,5.3,3.8l-1.1,0.3c-0.7-2-2.2-3.1-4.3-3.2c-3.1,0.3-4.7,2.2-5,5.9c0.2,3.7,1.8,5.7,4.8,5.9
				C578.9,642.8,580.4,641.5,581,639z"/>
			<path class="st0" d="M594.4,639l1.1,0.3c-0.7,2.8-2.6,4.2-5.7,4.3c-3.8-0.3-5.8-2.5-5.9-6.6c0.2-4.4,2.3-6.7,6.1-6.9
				c2.6,0.1,4.3,1.4,5.3,3.8l-1.1,0.3c-0.7-2-2.2-3.1-4.3-3.2c-3.1,0.3-4.7,2.2-5,5.9c0.2,3.7,1.8,5.7,4.8,5.9
				C592.3,642.8,593.8,641.5,594.4,639z"/>
			<path class="st0" d="M603.2,643.4h-5.5v-13.1h5.1c2.6,0.1,4,1.2,4.2,3.2c0,1.8-1,2.8-2.8,3.1c2.2,0.4,3.3,1.5,3.4,3.3
				C607.5,642.2,606.1,643.4,603.2,643.4z M602.5,631.1h-3.9v5h3.9c2.2,0,3.4-0.9,3.4-2.7C605.9,631.9,604.8,631.2,602.5,631.1z
				 M602.7,637h-4.1v5.6h4.4c2.4,0,3.6-1,3.6-3C606.4,637.9,605.1,637,602.7,637z"/>
			<path class="st0" d="M620.1,639l1.1,0.3c-0.7,2.8-2.6,4.2-5.7,4.3c-3.8-0.3-5.8-2.5-5.9-6.6c0.2-4.4,2.3-6.7,6.1-6.9
				c2.6,0.1,4.3,1.4,5.3,3.8l-1.1,0.3c-0.7-2-2.2-3.1-4.3-3.2c-3.1,0.3-4.7,2.2-5,5.9c0.2,3.7,1.8,5.7,4.8,5.9
				C618,642.8,619.6,641.5,620.1,639z"/>
			<path class="st0" d="M623.1,640.8l0.9-0.3c0.5,1.6,1.5,2.4,3,2.4c2.5,0,3.8-2,3.8-6.1c-0.8,1.5-2.1,2.2-4,2.2
				c-2.4-0.2-3.7-1.6-3.9-4.4c0.2-2.9,1.6-4.4,4.2-4.6c3.1,0,4.6,2.1,4.6,6.4c0,4.8-1.6,7.1-4.8,7.1
				C624.9,643.5,623.6,642.6,623.1,640.8z M630.6,635.1c-0.1-2.7-1.3-4.1-3.5-4.2c-2.2,0-3.3,1.3-3.3,3.6c0.1,2.3,1.1,3.5,3.1,3.6
				C629.2,638.1,630.4,637,630.6,635.1z"/>
			<path class="st0" d="M643.9,639l1.1,0.3c-0.7,2.8-2.6,4.2-5.7,4.3c-3.8-0.3-5.8-2.5-5.9-6.6c0.2-4.4,2.3-6.7,6.1-6.9
				c2.6,0.1,4.3,1.4,5.3,3.8l-1.1,0.3c-0.7-2-2.2-3.1-4.3-3.2c-3.1,0.3-4.7,2.2-5,5.9c0.2,3.7,1.8,5.7,4.8,5.9
				C641.8,642.8,643.3,641.5,643.9,639z"/>
		</g>
	</g>
	<g>
		<circle class="st0" cx="960" cy="458.9" r="67.7"/>
		<g>
			<path class="st2" d="M945,588c0.1,0,0.2,0.1,0.4,0.2c0.2,0.1,0.3,0.1,0.4,0.2c-0.6,2.2-1.2,4.1-1.6,5.8l-0.8-0.3
				c0.4-1.1,0.9-2.8,1.5-5.1C944.9,588.4,945,588.1,945,588z M945.4,585c-0.1-0.1-0.2-0.3-0.4-0.5c-0.7-0.8-1.3-1.4-1.7-1.9l0.6-0.5
				c0.9,0.9,1.6,1.7,2.1,2.4L945.4,585z M956.3,586.9c-2.1-1.3-3.8-2.8-4.8-4.6c-1.2,1.8-2.9,3.4-5,4.7c-0.2-0.2-0.3-0.5-0.6-0.7
				c2.5-1.4,4.3-3.2,5.4-5.3l0.8,0.1c0,0-0.1,0.1-0.1,0.2c-0.1,0.1-0.1,0.2-0.2,0.3c1.2,2,2.9,3.5,4.9,4.4c0,0.1-0.1,0.2-0.2,0.4
				C956.4,586.7,956.3,586.8,956.3,586.9z M947.8,591.3l0.5-0.6c0.9,0.6,1.9,1.2,2.9,1.9l3.3-3.3H947v-0.7h8.5v0.8l-3.6,3.6
				c0.6,0.3,1.3,0.7,2,1.2l-0.5,0.7C951.5,593.6,949.7,592.5,947.8,591.3z M950.3,585.4l0.6-0.5c0.2,0.3,0.5,0.6,0.9,1.1
				c0.4,0.5,0.7,0.8,0.8,1.1l-0.7,0.5c0,0-0.1-0.1-0.1-0.1C951.1,586.5,950.6,585.8,950.3,585.4z"/>
			<path class="st2" d="M960.9,583.8h0.7v8.1l1.1-0.1v-10.2h0.7v10.2l1.1-0.1v-7.9h0.7v9.3h-0.7v-0.8l-3.5,0.3V583.8z M966,591.6
				c0-0.1-0.1-0.2-0.2-0.3c-0.1-0.1-0.2-0.2-0.2-0.2c1.2-1,2.2-2.2,3.1-3.6l0.7,0.3c-0.2,0.3-0.5,0.7-0.7,1h4.3v0.7
				c-0.7,1.2-1.5,2.2-2.3,2.9c0.8,0.5,2,0.9,3.7,1.3c0,0.1-0.1,0.2-0.2,0.4c-0.1,0.2-0.2,0.3-0.2,0.3c-1.6-0.5-2.9-1-4-1.6
				c-1.2,0.7-2.6,1.3-4.4,1.8c0,0-0.1-0.1-0.2-0.2c-0.1-0.2-0.2-0.4-0.2-0.5c1.8-0.5,3.2-1,4.2-1.6c-0.6-0.5-1.3-1.3-1.9-2.3
				C967.1,590.7,966.6,591.2,966,591.6z M965.4,587.9c1.1-0.6,2.1-1.3,3-2l0.5,0.5c-0.9,0.7-1.9,1.4-3,2.1
				C965.8,588.3,965.6,588.1,965.4,587.9z M973.6,585.8c-0.3-0.3-0.5-0.5-0.7-0.8c-1.5,0-3.3,0.1-5.4,0.3c-0.3,0-0.5,0-0.8,0.1
				c-0.1,0-0.1,0.1-0.2,0.1l-0.4-0.8c0.5-0.2,0.8-0.5,1-0.7c0.9-0.9,1.8-1.8,2.5-2.8l0.7,0.4c-1.1,1.2-2.1,2.3-3.1,3.1
				c1.2-0.1,2.9-0.2,5-0.2c-0.5-0.5-0.9-0.9-1.4-1.4l0.5-0.5c0.5,0.4,1.1,1,1.8,1.8c0.4,0.4,0.7,0.7,1,1L973.6,585.8z M968.1,589.4
				l-0.2,0.2c0.7,1.2,1.3,2,2,2.4c0.8-0.6,1.5-1.5,2.2-2.6H968.1z M970.6,586.5l0.4-0.6c1.2,0.7,2.3,1.3,3.1,1.8l-0.5,0.6
				C972.5,587.5,971.5,586.9,970.6,586.5z"/>
		</g>
		<g>
			<path class="st0" d="M931.3,635.3H929l-0.8,3.5h2.2l-0.1,0.9H928l-0.9,3.8h-0.9l0.9-3.8h-2.6l-0.9,3.8h-0.9l1-3.8h-2.2l0.1-0.9
				h2.2l0.9-3.5h-2.2l0.2-0.9h2.2l0.9-3.8h0.9l-0.9,3.8h2.6l0.9-3.8h0.9l-0.9,3.8h2.2L931.3,635.3z M927.4,638.8l0.9-3.5h-2.6
				l-0.8,3.5H927.4z"/>
			<path class="st0" d="M940.9,633l-0.9,0.3c-0.4-1.7-1.4-2.5-2.9-2.4c-2.5,0-3.8,2-3.8,6.1c0.8-1.5,2.1-2.2,3.9-2.2
				c2.5,0.2,3.8,1.6,4,4.4c-0.2,2.8-1.6,4.2-4.2,4.4c-3.1,0-4.7-2-4.6-6.2c0-4.9,1.6-7.3,4.8-7.3C939,630.2,940.3,631.1,940.9,633z
				 M933.3,638.8c0.1,2.6,1.3,3.9,3.5,4c2.1,0,3.2-1.2,3.3-3.6c-0.1-2.3-1.1-3.5-3.2-3.6C934.7,635.8,933.5,636.8,933.3,638.8z"/>
			<path class="st0" d="M951.2,633l-0.9,0.3c-0.4-1.7-1.4-2.5-2.9-2.4c-2.5,0-3.8,2-3.8,6.1c0.8-1.5,2.1-2.2,3.9-2.2
				c2.5,0.2,3.8,1.6,4,4.4c-0.2,2.8-1.6,4.2-4.2,4.4c-3.1,0-4.7-2-4.6-6.2c0-4.9,1.6-7.3,4.8-7.3C949.4,630.2,950.6,631.1,951.2,633
				z M943.7,638.8c0.1,2.6,1.3,3.9,3.5,4c2.1,0,3.2-1.2,3.3-3.6c-0.1-2.3-1.1-3.5-3.2-3.6C945.1,635.8,943.9,636.8,943.7,638.8z"/>
			<path class="st0" d="M961.6,633l-0.9,0.3c-0.4-1.7-1.4-2.5-2.9-2.4c-2.5,0-3.8,2-3.8,6.1c0.8-1.5,2.1-2.2,3.9-2.2
				c2.5,0.2,3.8,1.6,4,4.4c-0.2,2.8-1.6,4.2-4.2,4.4c-3.1,0-4.7-2-4.6-6.2c0-4.9,1.6-7.3,4.8-7.3C959.8,630.2,961,631.1,961.6,633z
				 M954.1,638.8c0.1,2.6,1.3,3.9,3.5,4c2.1,0,3.2-1.2,3.3-3.6c-0.1-2.3-1.1-3.5-3.2-3.6C955.4,635.8,954.2,636.8,954.1,638.8z"/>
			<path class="st0" d="M971.9,633l-0.9,0.3c-0.4-1.7-1.4-2.5-2.9-2.4c-2.5,0-3.8,2-3.8,6.1c0.8-1.5,2.1-2.2,3.9-2.2
				c2.5,0.2,3.8,1.6,4,4.4c-0.2,2.8-1.6,4.2-4.2,4.4c-3.1,0-4.7-2-4.6-6.2c0-4.9,1.6-7.3,4.8-7.3C970.1,630.2,971.4,631.1,971.9,633
				z M964.4,638.8c0.1,2.6,1.3,3.9,3.5,4c2.1,0,3.2-1.2,3.3-3.6c-0.1-2.3-1.1-3.5-3.2-3.6C965.8,635.8,964.6,636.8,964.4,638.8z"/>
			<path class="st0" d="M982.3,633l-0.9,0.3c-0.4-1.7-1.4-2.5-2.9-2.4c-2.5,0-3.8,2-3.8,6.1c0.8-1.5,2.1-2.2,3.9-2.2
				c2.5,0.2,3.8,1.6,4,4.4c-0.2,2.8-1.6,4.2-4.2,4.4c-3.1,0-4.7-2-4.6-6.2c0-4.9,1.6-7.3,4.8-7.3C980.5,630.2,981.7,631.1,982.3,633
				z M974.8,638.8c0.1,2.6,1.3,3.9,3.5,4c2.1,0,3.2-1.2,3.3-3.6c-0.1-2.3-1.1-3.5-3.2-3.6C976.2,635.8,975,636.8,974.8,638.8z"/>
			<path class="st0" d="M992.7,633l-0.9,0.3c-0.4-1.7-1.4-2.5-2.9-2.4c-2.5,0-3.8,2-3.8,6.1c0.8-1.5,2.1-2.2,3.9-2.2
				c2.5,0.2,3.8,1.6,4,4.4c-0.2,2.8-1.6,4.2-4.2,4.4c-3.1,0-4.7-2-4.6-6.2c0-4.9,1.6-7.3,4.8-7.3C990.8,630.2,992.1,631.1,992.7,633
				z M985.1,638.8c0.1,2.6,1.3,3.9,3.5,4c2.1,0,3.2-1.2,3.3-3.6c-0.1-2.3-1.1-3.5-3.2-3.6C986.5,635.8,985.3,636.8,985.1,638.8z"/>
		</g>
	</g>
	<g>
		<circle class="st3" cx="1312.6" cy="458.9" r="67.7"/>
		<g>
			<path class="st2" d="M1296.7,582.7V582h11v0.8c-1.5,1.5-2.9,2.6-4.4,3.4c1.5,0.6,3.5,1,5.9,1.4c-0.2,0.2-0.3,0.5-0.5,0.7
				c-2.8-0.5-4.9-1.1-6.4-1.7c-1.4,0.7-3.5,1.3-6.3,1.9c-0.1-0.3-0.2-0.5-0.4-0.8c2.3-0.4,4.3-0.9,5.9-1.6c-1.5-0.8-2.7-2-3.7-3.5
				H1296.7z M1302.1,588h0.8v1.8h5v0.7h-5v2.7h6.3v0.7h-13.4v-0.7h6.3v-2.7h-5v-0.7h5V588z M1306.7,582.7h-7.9
				c1.1,1.4,2.3,2.4,3.7,3.1C1304,585,1305.4,584,1306.7,582.7z"/>
			<path class="st2" d="M1315.2,587.8c-0.8-0.8-1.5-1.4-2.1-1.9l0.5-0.5c0.9,0.6,1.6,1.2,2.2,1.8L1315.2,587.8z M1313.6,594.4
				c0.6-1.6,1.2-3.3,1.6-5.1c0.2,0.1,0.4,0.2,0.7,0.3c-0.8,2.3-1.3,4-1.5,5L1313.6,594.4z M1315.8,583.9c-0.5-0.5-1.2-1.2-2.1-1.9
				l0.6-0.5c0.6,0.5,1.3,1.1,2.2,1.8L1315.8,583.9z M1321.3,581.3h0.8v2h4.5v0.7h-4.5v2.5h3.8v0.7h-8.3v-0.7h3.7v-2.5h-4.2v-0.7h4.2
				V581.3z M1317.9,589.3h7.7v5.5h-0.7v-1h-6.2v1h-0.7V589.3z M1318.6,590v3.1h6.2V590H1318.6z"/>
		</g>
		<g>
			<path class="st0" d="M1285,635.3h-2.2l-0.8,3.5h2.2l-0.1,0.9h-2.2l-0.9,3.8h-0.9l0.9-3.8h-2.6l-0.9,3.8h-0.9l1-3.8h-2.2l0.1-0.9
				h2.2l0.9-3.5h-2.2l0.2-0.9h2.2l0.9-3.8h0.9l-0.9,3.8h2.6l0.9-3.8h0.9l-0.9,3.8h2.2L1285,635.3z M1281.1,638.8l0.9-3.5h-2.6
				l-0.8,3.5H1281.1z"/>
			<path class="st0" d="M1295.8,631.1h-7.9v5.1h6.9v0.9h-6.9v6.3h-1.1v-13.1h9V631.1z"/>
			<path class="st0" d="M1302.6,632c-0.6,1-1.9,1.9-3.9,2.8v-0.9c2.2-1.1,3.6-2.4,4.2-3.8h0.7v13.3h-1V632z"/>
			<path class="st0" d="M1317.4,631.1h-7.9v5.1h6.9v0.9h-6.9v6.3h-1.1v-13.1h9V631.1z"/>
			<path class="st0" d="M1324.2,632c-0.6,1-1.9,1.9-3.9,2.8v-0.9c2.2-1.1,3.6-2.4,4.2-3.8h0.7v13.3h-1V632z"/>
			<path class="st0" d="M1339,631.1h-7.9v5.1h6.9v0.9h-6.9v6.3h-1.1v-13.1h9V631.1z"/>
			<path class="st0" d="M1345.8,632c-0.6,1-1.9,1.9-3.9,2.8v-0.9c2.2-1.1,3.6-2.4,4.2-3.8h0.7v13.3h-1V632z"/>
		</g>
	</g>
</g>
</svg>
