<?xml version="1.0" encoding="utf-8"?>
<!-- Generator: Adobe Illustrator 21.0.2, SVG Export Plug-In . SVG Version: 6.00 Build 0)  -->
<svg version="1.1" id="图层_1" xmlns="http://www.w3.org/2000/svg" xmlns:xlink="http://www.w3.org/1999/xlink" x="0px" y="0px"
	 viewBox="0 0 300 180" style="enable-background:new 0 0 300 180;" xml:space="preserve">
<style type="text/css">
	.st0{opacity:0.21;}
	.st1{fill:#FFFFFF;}
</style>
<g class="st0">
	<path class="st1" d="M309.1,38.5c-7.5,3.4-15.5,5.5-23.9,6.5c8.6-5.1,15.3-13.4,18.4-23c-8,4.7-17,8.2-26.5,10.1
		C269.3,24,258.6,19,246.6,19c-23,0-41.6,18.6-41.6,41.6c0,3.2,0.4,6.5,1.1,9.5c-34.6-1.8-65.4-18.4-85.9-43.5
		c-3.6,6.1-5.6,13.3-5.6,21c0,14.5,7.4,27.2,18.5,34.6c-6.9-0.3-13.3-2.1-18.9-5.3c0,0.1,0,0.4,0,0.5c0,20.1,14.4,37,33.4,40.9
		c-3.5,1-7.1,1.5-11,1.5c-2.6,0-5.3-0.3-7.9-0.8c5.3,16.5,20.6,28.6,38.9,28.9c-14.2,11.1-32.3,17.9-51.7,17.9
		c-3.4,0-6.6-0.3-9.9-0.6c18.4,11.9,40.4,18.8,63.9,18.8c76.6,0,118.5-63.5,118.5-118.5c0-1.8,0-3.6-0.1-5.4
		C296.5,54.2,303.5,46.9,309.1,38.5z"/>
</g>
</svg>
