<?xml version="1.0" encoding="utf-8"?>
<!-- Generator: Adobe Illustrator 21.0.2, SVG Export Plug-In . SVG Version: 6.00 Build 0)  -->
<svg version="1.1" id="图层_1" xmlns="http://www.w3.org/2000/svg" xmlns:xlink="http://www.w3.org/1999/xlink" x="0px" y="0px"
	 viewBox="0 0 300 180" style="enable-background:new 0 0 300 180;" xml:space="preserve">
<style type="text/css">
	.st0{opacity:0.21;}
	.st1{fill:#FFFFFF;}
</style>
<g class="st0">
	<path class="st1" d="M267.9-8c-4.1-0.4-7.9,2.1-8.4,6.1c-0.6,3.9,2.2,7.7,6.1,8.4c14.2,3.2,41.2,7.3,48.3,47.4c0.7,4,4,8.4,9,7.3
		c3.7-0.8,7-2.9,5.4-12.3C321.1,9.4,289.6-6.4,267.9-8z"/>
	<path class="st1" d="M282.3,54.7c-1.4-7.5-8.8-15.6-17.5-16.8c-2.6-0.4-5,1.1-5.8,3.7c-0.8,2.8,0.7,5.9,3.5,6.5
		c5.9,1.2,8.8,5.4,9.7,9.7c0,0,0.8,2.9,3.6,3.7C278.7,62.3,283.8,60.3,282.3,54.7z"/>
	<path class="st1" d="M303.4,53.8c-2.3-18.6-16.3-33.8-34.9-37.1c-6.2-1.1-9.1,3.5-9.1,7s2.5,6.2,7.3,7.5c12.6,3.5,20.6,9,22.8,23.5
		c0.7,4.1,4.4,6.5,7.3,6.5c3.7,0,6.8-3,6.8-6.8C303.4,54,303.4,53.9,303.4,53.8L303.4,53.8z"/>
	<path class="st1" d="M267.2,129.4c-2.5,26.1-39.6,46.8-80,45.8c-37.3-1-62.1-20.6-58-43.4c4-22.1,34.5-41.3,70.4-43.4
		C238.1,86.2,269.6,104.2,267.2,129.4L267.2,129.4z M261.3,87.7c-1.5,0-2.1,0.3-2.3-0.3c-0.1-0.4,0-1,0.8-2.9
		c2.2-5.7,5.8-17.3-1.5-23.8c-4.8-4.3-25.3-7.5-46.7,7.5c-1.1,0.7-2.8,2.3-3.7,2.1c-1-0.3-1.1-1.4-1.2-3.3
		c-0.7-10.6,8.3-40.2-14.8-37.7c-24.4,4.1-57.6,42.8-67,61.6c-33.6,66.4,14.9,93.5,62.4,94.9c51.4,1.5,103.6-27.6,110.3-66.7
		C302.2,92.9,271.4,87.5,261.3,87.7z"/>
	<path class="st1" d="M196.8,133c-0.3,1.9-1.9,3.6-3.7,3.6s-3-1.5-2.9-3.5c0.3-1.9,1.8-3.5,3.7-3.6
		C195.7,129.6,197.1,131.1,196.8,133L196.8,133z M190.6,142.3c0.7-6.1-3.5-10.8-9.1-10.5c-5.7,0.3-10.6,5.1-11.5,11
		c-0.8,5.9,3.2,10.6,8.8,10.6C184.7,153.3,189.9,148.4,190.6,142.3L190.6,142.3z M192.8,106c-17,1-32.3,14.4-34.8,30.5
		c-2.5,16.4,9.3,30,26.8,30c18.2,0.1,34.9-14.2,36.9-31.6C223.7,117.7,210.5,105,192.8,106z"/>
</g>
</svg>
